<?xml version="1.0" standalone="no"?>
<!DOCTYPE svg PUBLIC "-//W3C//DTD SVG 20010904//EN"
 "http://www.w3.org/TR/2001/REC-SVG-20010904/DTD/svg10.dtd">
<svg version="1.0" xmlns="http://www.w3.org/2000/svg"
 width="384.000000pt" height="200.000000pt" viewBox="0 0 384.000000 200.000000"
 preserveAspectRatio="xMidYMid meet">

<g transform="translate(0.000000,200.000000) scale(0.100000,-0.100000)"
fill="#000000" stroke="none">
<path d="M2402 1501 c-48 -12 -98 -51 -116 -88 -40 -83 -5 -139 106 -173 132
-40 158 -51 173 -73 36 -51 0 -143 -70 -177 -75 -36 -193 -22 -239 29 -25 27
-40 27 -24 0 7 -11 30 -29 50 -40 137 -70 318 10 318 141 0 41 -54 95 -110
110 -171 44 -200 62 -200 125 0 85 67 138 175 138 65 0 110 -17 145 -55 11
-12 20 -18 20 -12 -1 13 -32 47 -58 62 -29 16 -127 24 -170 13z"/>
<path d="M2736 1403 c-3 -21 -15 -96 -26 -168 -11 -71 -22 -146 -25 -165 -7
-43 22 -96 62 -111 42 -16 52 -3 10 14 -61 26 -65 62 -27 290 12 74 14 77 57
77 45 0 39 9 -8 13 -33 2 -34 3 -31 45 4 52 -3 55 -12 5z"/>
<path d="M2966 1338 c-22 -13 -47 -39 -57 -58 -21 -40 -45 -224 -35 -264 15
-59 112 -83 191 -47 50 22 61 23 57 5 -2 -8 1 -14 6 -14 6 0 15 46 22 103 7
56 18 139 25 185 15 101 12 104 -93 109 -66 3 -82 1 -116 -19z m177 -4 c15 -3
27 -10 27 -14 0 -5 -9 -73 -20 -152 -19 -130 -23 -145 -47 -165 -43 -35 -104
-48 -155 -32 -62 20 -72 46 -58 156 17 131 26 159 63 187 45 34 92 39 190 20z"/>
<path d="M3352 1343 c-36 -18 -67 -56 -77 -95 -13 -51 -41 -288 -34 -288 8 0
23 86 39 218 14 117 36 149 109 159 23 3 41 10 41 14 0 14 -42 10 -78 -8z"/>
</g>
</svg>
